<svg width="17" height="17" viewBox="0 0 17 17" fill="none" xmlns="http://www.w3.org/2000/svg">
<path d="M14.9748 12.4181C14.4475 11.8868 13.1705 11.1115 12.551 10.7991C11.7441 10.3927 11.6777 10.3595 11.0436 10.8306C10.6205 11.1451 10.3393 11.426 9.84425 11.3204C9.34919 11.2148 8.27341 10.6195 7.33144 9.68047C6.38947 8.74149 5.7596 7.63449 5.65369 7.1411C5.54777 6.6477 5.83331 6.36979 6.14476 5.94578C6.58371 5.34813 6.5505 5.24852 6.17531 4.44168C5.88279 3.81414 5.08492 2.5491 4.55167 2.02449C3.98124 1.46104 3.98124 1.56065 3.61369 1.71338C3.31445 1.83928 3.02737 1.99233 2.75605 2.17059C2.2248 2.52354 1.92996 2.81672 1.72376 3.25733C1.51757 3.69793 1.42494 4.73088 2.48976 6.6653C3.55458 8.59971 4.30165 9.58883 5.84792 11.1308C7.39419 12.6727 8.5832 13.5018 10.3214 14.4767C12.4716 15.6809 13.2964 15.4462 13.7383 15.2403C14.1802 15.0345 14.4748 14.7423 14.8284 14.211C15.0071 13.9402 15.1605 13.6534 15.2866 13.3544C15.4396 12.9882 15.5393 12.9882 14.9748 12.4181Z" stroke="#9C464B" stroke-width="1.0625" stroke-miterlimit="10"/>
</svg>
