<svg width="17" height="17" viewBox="0 0 17 17" fill="none" xmlns="http://www.w3.org/2000/svg">
<path d="M7.35931 15.7563L8.11016 15.8742V15.1142V10.4643V9.81429H7.46016H6.42007V9.1901H7.46016H8.11016V8.5401V7.07401C8.11016 6.37004 8.31726 5.90332 8.60688 5.61338C8.89715 5.3228 9.34529 5.13466 9.97376 5.13466C10.2623 5.13466 10.5629 5.15744 10.8136 5.18396V5.60258H10.6241C10.0698 5.60258 9.59973 5.78039 9.28035 6.14958C8.97616 6.5012 8.88943 6.93421 8.88943 7.29237V8.5401V9.1901H9.53943H10.6278L10.5322 9.81429H9.53972H8.88972V10.4643V15.1148V15.8748L9.64051 15.7569C13.1336 15.2087 15.8045 12.1873 15.8045 8.5401C15.8045 4.50623 12.5338 1.2355 8.49994 1.2355C4.46607 1.2355 1.19534 4.50623 1.19534 8.5401C1.19534 12.1865 3.86637 15.2078 7.35931 15.7563Z" stroke="#9C464B" stroke-width="1.3"/>
</svg>
