<svg width="17" height="17" viewBox="0 0 17 17" fill="none" xmlns="http://www.w3.org/2000/svg">
<path d="M2.30209 5.40115C2.30455 4.57995 2.63185 3.79309 3.21253 3.21241C3.79321 2.63173 4.58008 2.30442 5.40127 2.30197L11.599 2.30197C12.4202 2.30442 13.207 2.63173 13.7877 3.21241C14.3684 3.79309 14.6957 4.57995 14.6981 5.40115L14.6981 11.5988C14.6957 12.42 14.3684 13.2069 13.7877 13.7876C13.207 14.3683 12.4202 14.6956 11.599 14.698L5.40127 14.698C4.58008 14.6956 3.79321 14.3683 3.21253 13.7876C2.63185 13.2069 2.30455 12.42 2.30209 11.5988L2.30209 5.40115ZM1.06262 5.40115L1.06262 11.5988C1.06262 13.9852 3.01497 15.9375 5.40127 15.9375L11.599 15.9375C13.9853 15.9375 15.9376 13.9852 15.9376 11.5988L15.9376 5.40115C15.9376 3.01484 13.9853 1.0625 11.599 1.0625L5.40127 1.0625C3.01497 1.0625 1.06262 3.01484 1.06262 5.40115Z" fill="#9C464B"/>
<path d="M5.40125 4.47146C5.40125 4.65534 5.34672 4.83508 5.24457 4.98797C5.14241 5.14086 4.99721 5.26002 4.82733 5.33038C4.65746 5.40075 4.47053 5.41916 4.29019 5.38329C4.10984 5.34741 3.94419 5.25887 3.81417 5.12885C3.68415 4.99883 3.59561 4.83318 3.55973 4.65284C3.52386 4.4725 3.54227 4.28557 3.61264 4.11569C3.683 3.94581 3.80217 3.80061 3.95505 3.69846C4.10794 3.5963 4.28768 3.54178 4.47156 3.54178C4.59372 3.54151 4.71473 3.56538 4.82764 3.61201C4.94056 3.65864 5.04315 3.72711 5.12953 3.81349C5.21591 3.89987 5.28438 4.00246 5.33101 4.11538C5.37764 4.22829 5.40151 4.3493 5.40125 4.47146ZM6.02082 8.5C6.02082 8.00964 6.16622 7.5303 6.43865 7.12259C6.71108 6.71487 7.09829 6.3971 7.55131 6.20945C8.00434 6.02179 8.50284 5.9727 8.98378 6.06836C9.46471 6.16402 9.90647 6.40015 10.2532 6.74688C10.5999 7.09362 10.8361 7.53538 10.9317 8.01632C11.0274 8.49725 10.9783 8.99575 10.7906 9.44878C10.603 9.90181 10.2852 10.289 9.87751 10.5614C9.46979 10.8339 8.99045 10.9793 8.50009 10.9793C7.84276 10.9786 7.21256 10.7171 6.74776 10.2523C6.28295 9.78753 6.02152 9.15733 6.02082 8.5ZM4.78134 8.5C4.78134 9.2355 4.99944 9.95448 5.40807 10.566C5.81669 11.1776 6.39748 11.6542 7.07699 11.9357C7.7565 12.2171 8.50422 12.2908 9.22559 12.1473C9.94695 12.0038 10.6096 11.6496 11.1296 11.1296C11.6497 10.6095 12.0039 9.94686 12.1474 9.22549C12.2909 8.50412 12.2172 7.75641 11.9358 7.07689C11.6543 6.39738 11.1777 5.81659 10.5661 5.40797C9.95457 4.99935 9.23559 4.78125 8.50009 4.78125C7.51382 4.78125 6.56794 5.17304 5.87054 5.87045C5.17314 6.56785 4.78134 7.51372 4.78134 8.5Z" fill="#9C464B"/>
</svg>
