<svg width="16" height="16" fill="none" xmlns="http://www.w3.org/2000/svg">
    <path d="M5.25 12.5c-.825 0-1.493.675-1.493 1.5s.668 1.5 1.493 1.5c.825 0 1.5-.675 1.5-1.5s-.675-1.5-1.5-1.5zM.75.5V2h1.5l2.7 5.692L3.937 9.53a1.45 1.45 0 00-.187.72c0 .825.675 1.5 1.5 1.5h9v-1.5H5.565a.186.186 0 01-.188-.188l.023-.09.675-1.222h5.587c.563 0 1.058-.307 1.313-.772L15.66 3.11A.752.752 0 0015 2H3.908L3.203.5H.75zm12 12c-.825 0-1.492.675-1.492 1.5s.667 1.5 1.492 1.5 1.5-.675 1.5-1.5-.675-1.5-1.5-1.5z" fill="#fff"/>
</svg>
