<svg width="92" height="17" fill="none" xmlns="http://www.w3.org/2000/svg">
    <path d="M8.168 0l2.146 5.214 5.623.43-4.296 3.653 1.328 5.48-4.8-2.958-4.802 2.957 1.329-5.48L.4 5.645l5.622-.43L8.168 0zM27.084 0l2.146 5.214 5.622.43-4.295 3.653 1.328 5.48-4.801-2.958-4.801 2.957 1.328-5.48-4.295-3.652 5.622-.43L27.084 0zM46 0l2.146 5.214 5.623.43-4.297 3.653 1.33 5.48L46 11.819l-4.801 2.957 1.329-5.48-4.296-3.652 5.622-.43L46 0zM64.916 0l2.146 5.214 5.622.43-4.296 3.653 1.329 5.48-4.801-2.958-4.801 2.957 1.328-5.48-4.296-3.652 5.623-.43L64.916 0z" fill="#FFB02E"/>
    <path d="M83.832 0l2.146 5.214 5.622.43-4.296 3.653 1.329 5.48-4.801-2.958-4.801 2.957 1.328-5.48-4.296-3.652 5.623-.43L83.832 0z" fill="#C4C4C4"/>
</svg>
