<?xml version="1.0" encoding="utf-8"?><svg xmlns="http://www.w3.org/2000/svg" xmlns:xlink="http://www.w3.org/1999/xlink"><symbol viewBox="0 0 17 17" id="call" xmlns="http://www.w3.org/2000/svg"><path d="M14.975 12.418c-.527-.531-1.804-1.306-2.424-1.619-.807-.406-.873-.44-1.507.032-.424.314-.705.595-1.2.49-.495-.106-1.57-.701-2.513-1.64-.942-.94-1.571-2.047-1.677-2.54-.106-.493.18-.771.49-1.195.44-.598.407-.697.031-1.504-.292-.628-1.09-1.893-1.623-2.418-.57-.563-.57-.463-.938-.31a5.15 5.15 0 00-.858.457c-.531.353-.826.646-1.032 1.086-.206.44-.3 1.474.766 3.408C3.555 8.6 4.302 9.59 5.848 11.131c1.546 1.542 2.735 2.37 4.473 3.346 2.15 1.204 2.975.97 3.417.763.442-.206.737-.498 1.09-1.029.18-.27.333-.558.459-.857.153-.366.252-.366-.312-.936z"/></symbol><symbol viewBox="0 0 17 17" id="fb" xmlns="http://www.w3.org/2000/svg"><path d="M7.36 15.756l.75.118v-6.06H6.42V9.19h1.69V7.074c0-.704.207-1.17.497-1.46.29-.291.738-.48 1.367-.48.288 0 .589.023.84.05v.419h-.19c-.554 0-1.024.177-1.344.547-.304.351-.39.784-.39 1.142V9.19h1.738l-.096.624H8.89v6.06l.75-.117A7.306 7.306 0 008.5 1.236a7.305 7.305 0 00-1.14 14.52z"/></symbol><symbol viewBox="0 0 17 17" id="insta" xmlns="http://www.w3.org/2000/svg"><path d="M2.302 5.401a3.109 3.109 0 013.1-3.099h6.197a3.108 3.108 0 013.1 3.1v6.197a3.108 3.108 0 01-3.1 3.099H5.401a3.108 3.108 0 01-3.099-3.1V5.402zm-1.24 0V11.6a4.351 4.351 0 004.34 4.338h6.197a4.351 4.351 0 004.339-4.338V5.4a4.351 4.351 0 00-4.339-4.338H5.401A4.351 4.351 0 001.063 5.4z"/><path d="M5.401 4.471a.93.93 0 11-1.86 0 .93.93 0 011.86 0zm.62 4.029a2.48 2.48 0 114.958 0 2.48 2.48 0 01-4.958 0zm-1.24 0a3.719 3.719 0 107.437 0 3.719 3.719 0 00-7.437 0z"/></symbol><symbol viewBox="0 0 19 19" id="mail" xmlns="http://www.w3.org/2000/svg"><path d="M15.734 3.563H3.266c-.82 0-1.485.664-1.485 1.484v8.906c0 .82.665 1.485 1.485 1.485h12.468c.82 0 1.485-.665 1.485-1.485V5.047c0-.82-.665-1.484-1.485-1.484z"/><path d="M4.156 5.938L9.5 10.093l5.344-4.156"/></symbol><symbol viewBox="0 0 12 16" id="map" xmlns="http://www.w3.org/2000/svg"><path d="M6.286 14l-.41.378.41.444.41-.444-.41-.378zm0 0l.41.377.004-.004.01-.011.038-.042.14-.158a28.515 28.515 0 002-2.565c.546-.793 1.1-1.7 1.52-2.618.417-.91.72-1.876.72-2.779 0-2.64-2.176-4.757-4.842-4.757-2.667 0-4.843 2.117-4.843 4.757 0 .903.303 1.868.72 2.78.42.918.975 1.823 1.521 2.617a28.515 28.515 0 002.14 2.723l.038.042.01.011.003.003v.001l.41-.377zm0-6.857a.96.96 0 01-.974-.943.96.96 0 01.974-.943.96.96 0 01.973.943.96.96 0 01-.973.943z"/></symbol></svg>