<svg width="92" height="17" viewBox="0 0 92 17" fill="none" xmlns="http://www.w3.org/2000/svg">
<path d="M8.16822 0L10.3143 5.21434L15.9367 5.6441L11.6407 9.29651L12.9694 14.7765L8.16822 11.8194L3.36706 14.7765L4.69573 9.29651L0.399781 5.6441L6.02211 5.21434L8.16822 0Z" fill="#FFB02E"/>
<path d="M27.084 0L29.2301 5.21434L34.8524 5.6441L30.5565 9.29651L31.8852 14.7765L27.084 11.8194L22.2828 14.7765L23.6115 9.29651L19.3156 5.6441L24.9379 5.21434L27.084 0Z" fill="#FFB02E"/>
<path d="M46 0L48.1461 5.21434L53.7685 5.6441L49.4725 9.29651L50.8012 14.7765L46 11.8194L41.1988 14.7765L42.5275 9.29651L38.2316 5.6441L43.8539 5.21434L46 0Z" fill="#FFB02E"/>
<path d="M64.9158 0L67.0619 5.21434L72.6842 5.6441L68.3883 9.29651L69.7169 14.7765L64.9158 11.8194L60.1146 14.7765L61.4433 9.29651L57.1473 5.6441L62.7697 5.21434L64.9158 0Z" fill="#FFB02E"/>
<path d="M83.8318 0L85.9779 5.21434L91.6002 5.6441L87.3043 9.29651L88.633 14.7765L83.8318 11.8194L79.0306 14.7765L80.3593 9.29651L76.0634 5.6441L81.6857 5.21434L83.8318 0Z" fill="#C4C4C4"/>
</svg>
